<svg xmlns="http://www.w3.org/2000/svg" viewBox="0 0 83.21 83.21"><defs><style>.cls-1{fill:#3f69d8;stroke:#fff;stroke-miterlimit:10;stroke-width:3px;}.cls-2{fill:#a2b1ce;}.cls-3{fill:#e8ecf3;}.cls-4{fill:#a7b5d1;}.cls-5{fill:#fff;fill-rule:evenodd;}</style></defs><g id="Layer_2" data-name="Layer 2"><g id="Design"><circle class="cls-1" cx="41.61" cy="41.61" r="40.11" transform="translate(-8.45 72.54) rotate(-76.72)"/><path class="cls-2" d="M40.79,43.63c0-.19,0-.39-.08-.58.08-1.17-.1-2.38.51-3.47l.56.48c1.26,1,.21,2.39.49,3.56l-.49,0Z"/><path class="cls-3" d="M42.5,40.68l-.79,2c-.35-.69-2.26-1.37,0-2.07Z"/><path class="cls-4" d="M40.84,39.56h1l.48,1.53c-.54.36,0,.68,0,1l-.53.53a1,1,0,0,0-.51,1C40.31,42.39,41,40.92,40.84,39.56Z"/><path class="cls-5" d="M35,41.81V66.37a.64.64,0,0,0,.64.64h9.12a.63.63,0,0,0,.64-.64v-25H52a.63.63,0,0,0,.63-.59l.64-7.52a.64.64,0,0,0-.64-.69H45.36V27.27A2.27,2.27,0,0,1,47.63,25h5.09a.63.63,0,0,0,.64-.64V16.84a.64.64,0,0,0-.64-.64H44.11A9.15,9.15,0,0,0,35,25.35v7.26H30.4a.64.64,0,0,0-.64.64v7.52a.64.64,0,0,0,.64.64H35Z"/></g></g></svg>