<svg xmlns="http://www.w3.org/2000/svg" viewBox="0 0 83.22 83.21"><defs><style>.cls-1{fill:#be209b;stroke:#fff;stroke-miterlimit:10;stroke-width:3px;}.cls-2{fill:#fff;}</style></defs><g id="Layer_2" data-name="Layer 2"><g id="Design"><circle class="cls-1" cx="41.61" cy="41.61" r="40.11" transform="translate(-12.76 19.09) rotate(-22.5)"/><circle class="cls-2" cx="55.81" cy="27.64" r="3.12"/><path class="cls-2" d="M42,28.52A13.09,13.09,0,1,0,55,41.61,13.11,13.11,0,0,0,42,28.52ZM42,50a8.39,8.39,0,1,1,8.39-8.38A8.39,8.39,0,0,1,42,50Z"/><path class="cls-2" d="M52.34,68.18H31.13a16,16,0,0,1-16-16V31a16,16,0,0,1,16-16H52.34a16,16,0,0,1,16,16V52.22A16,16,0,0,1,52.34,68.18ZM31.13,20a11,11,0,0,0-11,11V52.22a11,11,0,0,0,11,11H52.34a11,11,0,0,0,11-11V31a11,11,0,0,0-11-11Z"/></g></g></svg>