<svg xmlns="http://www.w3.org/2000/svg" viewBox="0 0 83.21 83.21"><defs><style>.cls-1{fill:#5a9234;stroke:#fff;stroke-miterlimit:10;stroke-width:3px;}.cls-2{fill:#fff;}</style></defs><g id="Layer_2" data-name="Layer 2"><g id="Design"><circle class="cls-1" cx="41.61" cy="41.61" r="40.11"/><path class="cls-2" d="M45.15,53.26l-3.42,5.12-3.35-5c-.76.74-1.43,1.5-2.21,2.14-4.73,3.84-10,4.88-15.76,2.78A15.3,15.3,0,0,1,10.17,46a15.28,15.28,0,0,1,2.54-11.61,1.14,1.14,0,0,0,.17-1.08,21.24,21.24,0,0,0-2.53-5.12l-.41-.63H19.4a1.51,1.51,0,0,0,.82-.19,37.61,37.61,0,0,1,16.24-5.47,43.51,43.51,0,0,1,17.79,1.53,36.24,36.24,0,0,1,8.36,3.8,2,2,0,0,0,1,.28c3,0,6.06,0,9.09,0,.16,0,.32,0,.63.05a6.85,6.85,0,0,1-.37,1.06,18.74,18.74,0,0,0-2.24,4.9,1.19,1.19,0,0,0,.13.78c.44.85,1,1.65,1.39,2.5a8.71,8.71,0,0,1,1,4.49,33.15,33.15,0,0,0,0,4.11,9.55,9.55,0,0,1-1.07,4.73,15.94,15.94,0,0,1-26.64,3.57C45.42,53.55,45.32,53.45,45.15,53.26Zm25.36-9.93a12.74,12.74,0,1,0-12.78,12.8A12.77,12.77,0,0,0,70.51,43.33ZM25.87,56.06A12.74,12.74,0,1,0,13.15,43.35,12.64,12.64,0,0,0,25.87,56.06ZM41.74,41.39c1.56-8.21,6.57-13,15.13-14-3-1.56-8.94-3.06-15.22-3-5.34,0-13.59,1.63-15.15,2.93C35.06,28.32,40.16,33.11,41.74,41.39Z"/><path class="cls-2" d="M57.67,35.29a7.88,7.88,0,1,1-7.87,7.78A7.91,7.91,0,0,1,57.67,35.29Zm0,13a5.17,5.17,0,1,0-5.18-4.92A5.14,5.14,0,0,0,57.66,48.33Z"/><path class="cls-2" d="M25.66,51a7.88,7.88,0,1,1,7.92-7.85A7.91,7.91,0,0,1,25.66,51Zm0-2.71a5.17,5.17,0,1,0-5.19-4.91A5.18,5.18,0,0,0,25.69,48.33Z"/></g></g></svg>