<svg xmlns="http://www.w3.org/2000/svg" viewBox="0 0 83.21 83.21"><defs><style>.cls-1{fill:#2cbee3;stroke:#fff;stroke-miterlimit:10;stroke-width:3px;}.cls-2,.cls-3{fill:#fff;}.cls-3{fill-rule:evenodd;}</style></defs><g id="Layer_2" data-name="Layer 2"><g id="Design"><circle class="cls-1" cx="41.61" cy="41.61" r="40.11" transform="translate(-7.83 73.52) rotate(-77.84)"/><path class="cls-2" d="M66,26.14a20.18,20.18,0,0,1-5,1.42c.8-.13,2-1.59,2.46-2.17a9.35,9.35,0,0,0,1.66-3c0-.09.08-.2,0-.26a.29.29,0,0,0-.26,0,25.67,25.67,0,0,1-5.93,2.27.4.4,0,0,1-.41-.11,4.35,4.35,0,0,0-.52-.53A10.46,10.46,0,0,0,55.1,22a10.19,10.19,0,0,0-4.4-.71,10.66,10.66,0,0,0-7.55,3.94,10.2,10.2,0,0,0-2,4A10.86,10.86,0,0,0,41,33.5c0,.24,0,.27-.21.24-8.14-1.21-14.89-4.12-20.36-10.37-.24-.27-.37-.27-.57,0C17.5,27,18.66,32.76,21.65,35.6a14.81,14.81,0,0,0,1.26,1.1A10.34,10.34,0,0,1,19,35.6c-.24-.15-.36-.06-.38.2A6.7,6.7,0,0,0,18.66,37,10.46,10.46,0,0,0,25.1,45.3a6.42,6.42,0,0,0,1.31.4,12,12,0,0,1-3.86.12c-.28-.06-.39.08-.28.35,1.7,4.63,5.36,6,8.1,6.79.37.06.73.06,1.1.15l-.06.06c-.91,1.39-4.07,2.42-5.53,2.93a19.73,19.73,0,0,1-8.41,1.08c-.45-.07-.54-.06-.66,0s0,.18.12.3c.58.38,1.16.71,1.75,1a28,28,0,0,0,5.62,2.24c10.09,2.79,21.46.74,29-6.79,5.95-5.91,8-14.06,8-22.23,0-.32.38-.49.61-.66A19.91,19.91,0,0,0,65.91,27a1.19,1.19,0,0,0,.24-.79v0C66.15,26,66.17,26.05,66,26.14Z"/><path class="cls-3" d="M31.42,61.78Z"/><path class="cls-3" d="M31.42,61.78Z"/><path class="cls-3" d="M33.09,61.82c0-.08.87,0,0,0C33.09,61.78,33.19,61.82,33.09,61.82Z"/><path class="cls-3" d="M50.56,21.32a.17.17,0,0,1-.21,0Z"/></g></g></svg>