<svg xmlns="http://www.w3.org/2000/svg" viewBox="0 0 83.21 83.21"><defs><style>.cls-1{fill:#cd201f;stroke:#fff;stroke-miterlimit:10;stroke-width:3px;}.cls-2{fill:#fff;}</style></defs><g id="Layer_2" data-name="Layer 2"><g id="Design"><circle class="cls-1" cx="41.61" cy="41.61" r="40.11" transform="translate(-17.23 41.61) rotate(-45)"/><path class="cls-2" d="M67,35.18A10.89,10.89,0,0,0,56.1,24.3H27.87A10.88,10.88,0,0,0,17,35.18V48.41A10.89,10.89,0,0,0,27.87,59.3H56.1A10.9,10.9,0,0,0,67,48.41ZM49.17,42.46,37.91,48.64c-.48.26-.92-.09-.92-.65V35.32c0-.57.45-.92.94-.64l11.33,6.5A.73.73,0,0,1,49.17,42.46Z"/></g></g></svg>